<svg width="340" height="100" viewBox="0 0 340 100" fill="none" xmlns="http://www.w3.org/2000/svg">
<path opacity="0.88" d="M324.07 73.3375C322.382 73.3375 320.976 73.1875 319.851 72.8875C318.726 72.55 317.807 72.0625 317.095 71.425C316.42 70.7875 315.932 69.9813 315.632 69.0063C315.37 67.9938 315.238 66.8125 315.238 65.4625V30.25H323.395V63.4938C323.395 64.8438 323.582 65.7438 323.957 66.1938C324.332 66.6438 324.988 66.8688 325.926 66.8688C326.151 66.8688 326.395 66.8688 326.657 66.8688C326.92 66.8313 327.22 66.775 327.557 66.7V73C326.47 73.225 325.307 73.3375 324.07 73.3375Z" fill="#0F172A"/>
<path opacity="0.88" d="M293.799 73.5625C291.436 73.5625 289.318 73.3187 287.443 72.8312C285.605 72.3438 284.049 71.5 282.774 70.3C281.536 69.1 280.58 67.4875 279.905 65.4625C279.23 63.4375 278.893 60.8875 278.893 57.8125C278.893 54.7375 279.23 52.1875 279.905 50.1625C280.58 48.1375 281.536 46.525 282.774 45.325C284.049 44.125 285.605 43.2812 287.443 42.7938C289.318 42.3063 291.436 42.0625 293.799 42.0625C296.161 42.0625 298.261 42.3063 300.099 42.7938C301.936 43.2812 303.474 44.125 304.711 45.325C305.986 46.525 306.961 48.1375 307.636 50.1625C308.311 52.1875 308.649 54.7375 308.649 57.8125C308.649 60.8875 308.311 63.4375 307.636 65.4625C306.961 67.4875 305.986 69.1 304.711 70.3C303.474 71.5 301.936 72.3438 300.099 72.8312C298.261 73.3187 296.161 73.5625 293.799 73.5625ZM293.799 67.375C295.036 67.375 296.068 67.225 296.893 66.925C297.755 66.625 298.43 66.1187 298.918 65.4062C299.443 64.6562 299.799 63.6625 299.986 62.425C300.211 61.1875 300.324 59.65 300.324 57.8125C300.324 55.975 300.211 54.4375 299.986 53.2C299.761 51.9625 299.386 50.9687 298.861 50.2187C298.374 49.4687 297.718 48.9437 296.893 48.6437C296.068 48.3062 295.036 48.1375 293.799 48.1375C292.561 48.1375 291.511 48.3062 290.649 48.6437C289.824 48.9437 289.149 49.4687 288.624 50.2187C288.136 50.9687 287.78 51.9625 287.555 53.2C287.368 54.4375 287.274 55.975 287.274 57.8125C287.274 59.65 287.386 61.1875 287.611 62.425C287.836 63.6625 288.193 64.6562 288.68 65.4062C289.205 66.1187 289.88 66.625 290.705 66.925C291.53 67.225 292.561 67.375 293.799 67.375Z" fill="#0F172A"/>
<path opacity="0.88" d="M258.973 73.5625C256.61 73.5625 254.491 73.3187 252.616 72.8312C250.779 72.3438 249.223 71.5 247.948 70.3C246.71 69.1 245.754 67.4875 245.079 65.4625C244.404 63.4375 244.066 60.8875 244.066 57.8125C244.066 54.7375 244.404 52.1875 245.079 50.1625C245.754 48.1375 246.71 46.525 247.948 45.325C249.223 44.125 250.779 43.2812 252.616 42.7938C254.491 42.3063 256.61 42.0625 258.973 42.0625C261.335 42.0625 263.435 42.3063 265.273 42.7938C267.11 43.2812 268.648 44.125 269.885 45.325C271.16 46.525 272.135 48.1375 272.81 50.1625C273.485 52.1875 273.823 54.7375 273.823 57.8125C273.823 60.8875 273.485 63.4375 272.81 65.4625C272.135 67.4875 271.16 69.1 269.885 70.3C268.648 71.5 267.11 72.3438 265.273 72.8312C263.435 73.3187 261.335 73.5625 258.973 73.5625ZM258.973 67.375C260.21 67.375 261.241 67.225 262.066 66.925C262.929 66.625 263.604 66.1187 264.091 65.4062C264.616 64.6562 264.973 63.6625 265.16 62.425C265.385 61.1875 265.498 59.65 265.498 57.8125C265.498 55.975 265.385 54.4375 265.16 53.2C264.935 51.9625 264.56 50.9687 264.035 50.2187C263.548 49.4687 262.891 48.9437 262.066 48.6437C261.241 48.3062 260.21 48.1375 258.973 48.1375C257.735 48.1375 256.685 48.3062 255.823 48.6437C254.998 48.9437 254.323 49.4687 253.798 50.2187C253.31 50.9687 252.954 51.9625 252.729 53.2C252.541 54.4375 252.448 55.975 252.448 57.8125C252.448 59.65 252.56 61.1875 252.785 62.425C253.01 63.6625 253.366 64.6562 253.854 65.4062C254.379 66.1187 255.054 66.625 255.879 66.925C256.704 67.225 257.735 67.375 258.973 67.375Z" fill="#0F172A"/>
<path opacity="0.88" d="M243.227 41.4437H232.989V73H224.495V41.4437H214.258V33.9625H243.227V41.4437Z" fill="#0F172A"/>
<path opacity="0.88" d="M209.164 42.625V70.6375C209.164 72.7375 208.882 74.6125 208.32 76.2625C207.757 77.95 206.801 79.375 205.451 80.5375C204.139 81.7375 202.414 82.6562 200.276 83.2938C198.139 83.9313 195.495 84.25 192.345 84.25C190.957 84.25 189.476 84.175 187.901 84.025C186.326 83.9125 184.92 83.7437 183.682 83.5187V77.05C184.882 77.35 186.195 77.575 187.62 77.725C189.045 77.875 190.414 77.95 191.726 77.95C193.376 77.95 194.782 77.8188 195.945 77.5563C197.145 77.2938 198.12 76.8625 198.87 76.2625C199.62 75.7 200.164 74.9312 200.501 73.9562C200.876 72.9812 201.064 71.7625 201.064 70.3V68.6688C200.426 70.0188 199.414 71.0875 198.026 71.875C196.676 72.625 194.632 73 191.895 73C189.42 73 187.395 72.625 185.82 71.875C184.245 71.125 182.989 70.075 182.051 68.725C181.114 67.375 180.457 65.7625 180.082 63.8875C179.745 61.975 179.576 59.8562 179.576 57.5312C179.576 55.4688 179.745 53.5 180.082 51.625C180.457 49.75 181.114 48.1 182.051 46.675C182.989 45.25 184.245 44.125 185.82 43.3C187.395 42.475 189.42 42.0625 191.895 42.0625C194.67 42.0625 196.732 42.4562 198.082 43.2437C199.47 43.9937 200.464 45.0812 201.064 46.5062V42.625H209.164ZM194.314 67.0375C195.814 67.0375 197.032 66.8313 197.97 66.4188C198.907 65.9688 199.639 65.35 200.164 64.5625C200.689 63.7375 201.026 62.7437 201.176 61.5812C201.364 60.3812 201.457 59.0312 201.457 57.5312C201.457 56.0687 201.364 54.775 201.176 53.65C201.026 52.4875 200.689 51.4937 200.164 50.6687C199.639 49.8437 198.907 49.225 197.97 48.8125C197.032 48.3625 195.814 48.1375 194.314 48.1375C192.889 48.1375 191.745 48.4 190.882 48.925C190.057 49.45 189.42 50.1437 188.97 51.0062C188.557 51.8687 188.276 52.8625 188.126 53.9875C188.014 55.1125 187.957 56.2937 187.957 57.5312C187.957 58.8438 188.014 60.0813 188.126 61.2438C188.276 62.3688 188.576 63.3625 189.026 64.225C189.476 65.0875 190.114 65.7813 190.939 66.3063C191.801 66.7938 192.926 67.0375 194.314 67.0375Z" fill="#0F172A"/>
<path opacity="0.88" d="M159.656 73.5625C157.294 73.5625 155.175 73.3187 153.3 72.8312C151.462 72.3438 149.906 71.5 148.631 70.3C147.394 69.1 146.438 67.4875 145.763 65.4625C145.088 63.4375 144.75 60.8875 144.75 57.8125C144.75 54.7375 145.088 52.1875 145.763 50.1625C146.438 48.1375 147.394 46.525 148.631 45.325C149.906 44.125 151.462 43.2812 153.3 42.7938C155.175 42.3063 157.294 42.0625 159.656 42.0625C162.019 42.0625 164.119 42.3063 165.956 42.7938C167.794 43.2812 169.331 44.125 170.569 45.325C171.844 46.525 172.819 48.1375 173.494 50.1625C174.169 52.1875 174.506 54.7375 174.506 57.8125C174.506 60.8875 174.169 63.4375 173.494 65.4625C172.819 67.4875 171.844 69.1 170.569 70.3C169.331 71.5 167.794 72.3438 165.956 72.8312C164.119 73.3187 162.019 73.5625 159.656 73.5625ZM159.656 67.375C160.894 67.375 161.925 67.225 162.75 66.925C163.612 66.625 164.288 66.1187 164.775 65.4062C165.3 64.6562 165.656 63.6625 165.844 62.425C166.069 61.1875 166.181 59.65 166.181 57.8125C166.181 55.975 166.069 54.4375 165.844 53.2C165.619 51.9625 165.244 50.9687 164.719 50.2187C164.231 49.4687 163.575 48.9437 162.75 48.6437C161.925 48.3062 160.894 48.1375 159.656 48.1375C158.419 48.1375 157.369 48.3062 156.506 48.6437C155.681 48.9437 155.006 49.4687 154.481 50.2187C153.994 50.9687 153.638 51.9625 153.413 53.2C153.225 54.4375 153.131 55.975 153.131 57.8125C153.131 59.65 153.244 61.1875 153.469 62.425C153.694 63.6625 154.05 64.6562 154.538 65.4062C155.063 66.1187 155.737 66.625 156.562 66.925C157.387 67.225 158.419 67.375 159.656 67.375Z" fill="#0F172A"/>
<path opacity="0.88" d="M140.907 65.575V73H116.832V33.9625H125.382V65.575H140.907Z" fill="#0F172A"/>
<g style="mix-blend-mode:darken">
<path d="M32.855 14.628C33.2035 13.9041 34.2198 13.8659 34.6216 14.5616L41.2261 26.0001H29.7935C29.0237 26.0001 28.5424 26.8334 28.9273 27.5001L37.0103 41.5001C37.1186 41.6876 37.2832 41.83 37.4751 41.9142L31.1118 55.132C30.4726 56.4597 31.4401 57.9999 32.9136 58.0001H56.1235C56.4808 58.0001 56.8111 58.1907 56.9897 58.5001L65.0728 72.5001C65.4573 73.1667 64.9761 73.9999 64.2065 74.0001H28.1392C17.0863 74 9.82982 62.4521 14.6245 52.4933L32.855 14.628Z" fill="url(#paint0_linear_238_4248)"/>
<path d="M61.1448 85.3728C60.796 86.0961 59.7789 86.1338 59.3773 85.4382L52.7728 73.9997L64.2064 73.9997C64.9762 73.9997 65.4575 73.1664 65.0726 72.4997L56.9905 58.4997C56.8821 58.312 56.7169 58.1698 56.5247 58.0856L62.888 44.8678C63.5273 43.54 62.559 41.9997 61.0853 41.9997L37.8763 41.9996C37.5192 41.9995 37.1886 41.8089 37.0101 41.4996L28.9271 27.4996C28.5427 26.8331 29.0239 25.9999 29.7933 25.9996L84.5443 25.9996C84.8641 25.9998 85.1596 26.1709 85.3197 26.4479L93.433 40.4996C93.8178 41.1663 93.3364 41.9995 92.5668 41.9997L82.0267 41.9997L61.1448 85.3728Z" fill="white"/>
<path d="M61.1448 85.3728C60.796 86.0961 59.7789 86.1338 59.3773 85.4382L52.7728 73.9997L64.2064 73.9997C64.9762 73.9997 65.4575 73.1664 65.0726 72.4997L56.9905 58.4997C56.8821 58.312 56.7169 58.1698 56.5247 58.0856L62.888 44.8678C63.5273 43.54 62.559 41.9997 61.0853 41.9997L37.8763 41.9996C37.5192 41.9995 37.1886 41.8089 37.0101 41.4996L28.9271 27.4996C28.5427 26.8331 29.0239 25.9999 29.7933 25.9996L84.5443 25.9996C84.8641 25.9998 85.1596 26.1709 85.3197 26.4479L93.433 40.4996C93.8178 41.1663 93.3364 41.9995 92.5668 41.9997L82.0267 41.9997L61.1448 85.3728Z" fill="#CD011D"/>
</g>
<defs>
<linearGradient id="paint0_linear_238_4248" x1="35.1035" y1="12.9228" x2="35.1035" y2="74" gradientUnits="userSpaceOnUse">
<stop stop-color="#496FFE"/>
<stop offset="1" stop-color="#032B71"/>
</linearGradient>
</defs>
</svg>
