<svg width="65" height="60" viewBox="0 0 65 60" fill="none" xmlns="http://www.w3.org/2000/svg">
<path d="M32.3538 59.3732C32.005 60.0965 30.9879 60.1342 30.5863 59.4386L23.9818 48.0001L35.4154 48.0001C36.1852 48.0001 36.6665 47.1668 36.2816 46.5001L28.1995 32.5001C28.0911 32.3124 27.9259 32.1702 27.7337 32.086L34.097 18.8682C34.7363 17.5404 33.768 16 32.2943 16L9.08526 16C8.72816 15.9999 8.39761 15.8093 8.21905 15.5L0.136037 1.50001C-0.248355 0.833532 0.232862 0.000322421 1.00225 5.8687e-06L55.7533 1.06552e-05C56.0731 0.000182345 56.3686 0.171314 56.5287 0.448253L64.6419 14.5C65.0268 15.1666 64.5454 15.9999 63.7757 16L53.2357 16L32.3538 59.3732Z" fill="white"/>
<path d="M32.3538 59.3732C32.005 60.0965 30.9879 60.1342 30.5863 59.4386L23.9818 48.0001L35.4154 48.0001C36.1852 48.0001 36.6665 47.1668 36.2816 46.5001L28.1995 32.5001C28.0911 32.3124 27.9259 32.1702 27.7337 32.086L34.097 18.8682C34.7363 17.5404 33.768 16 32.2943 16L9.08526 16C8.72816 15.9999 8.39761 15.8093 8.21905 15.5L0.136037 1.50001C-0.248355 0.833532 0.232862 0.000322421 1.00225 5.8687e-06L55.7533 1.06552e-05C56.0731 0.000182345 56.3686 0.171314 56.5287 0.448253L64.6419 14.5C65.0268 15.1666 64.5454 15.9999 63.7757 16L53.2357 16L32.3538 59.3732Z" fill="#CD011D"/>
</svg>
